<?xml version="1.0" encoding="UTF-8" standalone="no"?>
<svg
   width="5652.5688"
   height="968.53558"
   viewBox="0 0 5652.5688 968.53558"
   version="1.1"
   xml:space="preserve"
   style="clip-rule:evenodd;fill-rule:evenodd;stroke-linecap:round;stroke-linejoin:round;stroke-miterlimit:1.5"
   id="svg29"
   sodipodi:docname="infotronics-02.svg"
   inkscape:version="1.4.3 (0d15f75, 2025-12-25)"
   xmlns:inkscape="http://www.inkscape.org/namespaces/inkscape"
   xmlns:sodipodi="http://sodipodi.sourceforge.net/DTD/sodipodi-0.dtd"
   xmlns="http://www.w3.org/2000/svg"
   xmlns:svg="http://www.w3.org/2000/svg"><sodipodi:namedview
   id="namedview29"
   pagecolor="#ffffff"
   bordercolor="#000000"
   borderopacity="0.25"
   inkscape:showpageshadow="2"
   inkscape:pageopacity="0.0"
   inkscape:pagecheckerboard="0"
   inkscape:deskcolor="#d1d1d1"
   inkscape:zoom="0.13008114"
   inkscape:cx="2552.2532"
   inkscape:cy="1933.4086"
   inkscape:window-width="1800"
   inkscape:window-height="1102"
   inkscape:window-x="0"
   inkscape:window-y="39"
   inkscape:window-maximized="0"
   inkscape:current-layer="Infotronics-Logo" />
    <g
   id="Infotronics-Logo"
   transform="matrix(1.090344,0,0,0.440289,-986.25656,-288.23222)">
        <rect
   x="0"
   y="0"
   width="2480.3149"
   height="3507.874"
   style="fill:none"
   id="rect1" />
        <g
   transform="matrix(9.102334,0,0,22.541261,-5613.9146,-27320.524)"
   id="g12"
   style="fill:#414141;fill-opacity:1">
            <g
   transform="matrix(65.02635,0,0,65.02635,807.31027,1314.1791)"
   id="g1"
   style="fill:#414141;fill-opacity:1">
                <path
   d="m 0.083,-0.721 c 0,-0.006 0.001,-0.011 0.005,-0.015 0.004,-0.004 0.009,-0.007 0.016,-0.007 h 0.148 c 0.005,0 0.01,0.002 0.016,0.006 0.005,0.004 0.008,0.01 0.008,0.016 v 0.699 C 0.276,-0.007 0.268,0 0.252,0 H 0.104 C 0.09,0 0.083,-0.007 0.083,-0.022 Z"
   style="fill:#414141;fill-rule:nonzero;fill-opacity:1"
   id="path1" />
            </g>
            <g
   transform="matrix(65.02635,0,0,65.02635,830.49216,1314.1791)"
   id="g2"
   style="fill:#414141;fill-opacity:1">
                <path
   d="m 0.083,-0.721 c 0,-0.006 0.001,-0.011 0.005,-0.015 0.004,-0.004 0.009,-0.007 0.016,-0.007 h 0.164 c 0.005,0 0.01,0.002 0.015,0.004 0.005,0.002 0.009,0.006 0.012,0.012 0.043,0.068 0.085,0.136 0.126,0.202 0.042,0.066 0.084,0.134 0.127,0.202 V -0.724 C 0.549,-0.73 0.552,-0.734 0.556,-0.738 0.56,-0.741 0.565,-0.743 0.57,-0.743 h 0.143 c 0.007,0 0.012,0.002 0.017,0.006 0.005,0.004 0.007,0.009 0.007,0.016 v 0.702 c 0,0.006 -0.002,0.011 -0.006,0.014 C 0.727,-0.002 0.721,0 0.715,0 H 0.555 C 0.551,0 0.547,-0.002 0.543,-0.005 0.54,-0.008 0.537,-0.012 0.533,-0.017 0.489,-0.09 0.445,-0.162 0.402,-0.234 0.358,-0.306 0.314,-0.378 0.27,-0.452 v 0.43 c 0,0.007 -0.002,0.013 -0.005,0.017 C 0.261,-0.002 0.255,0 0.246,0 H 0.104 C 0.097,0 0.091,-0.002 0.088,-0.006 0.084,-0.01 0.083,-0.015 0.083,-0.022 Z"
   style="fill:#414141;fill-rule:nonzero;fill-opacity:1"
   id="path2" />
            </g>
            <g
   transform="matrix(65.02635,0,0,65.02635,883.78126,1314.1791)"
   id="g3"
   style="fill:#414141;fill-opacity:1">
                <path
   d="m 0.085,-0.72 c 0,-0.007 10e-4,-0.012 0.005,-0.016 0.004,-0.004 0.009,-0.006 0.014,-0.007 h 0.479 c 0.007,0 0.013,0.003 0.017,0.007 0.004,0.004 0.006,0.01 0.006,0.017 v 0.124 c 0,0.006 -0.002,0.012 -0.006,0.017 -0.004,0.005 -0.01,0.007 -0.018,0.007 H 0.278 v 0.155 h 0.225 c 0.006,0 0.011,0.002 0.015,0.005 0.005,0.004 0.007,0.009 0.007,0.017 v 0.119 c 0,0.006 -0.002,0.012 -0.006,0.017 -0.004,0.005 -0.009,0.007 -0.015,0.007 H 0.278 v 0.229 C 0.278,-0.007 0.27,0 0.255,0 H 0.103 C 0.091,-0.002 0.085,-0.009 0.085,-0.021 Z"
   style="fill:#414141;fill-rule:nonzero;fill-opacity:1"
   id="path3" />
            </g>
            <g
   transform="matrix(65.02635,0,0,65.02635,925.95084,1314.1791)"
   id="g4"
   style="fill:#414141;fill-opacity:1">
                <path
   d="m 0.239,-0.371 c 0,0.028 0.005,0.053 0.014,0.078 0.009,0.023 0.022,0.044 0.039,0.062 0.017,0.018 0.037,0.032 0.06,0.042 0.023,0.01 0.048,0.015 0.076,0.015 0.028,0 0.053,-0.005 0.076,-0.015 0.023,-0.01 0.043,-0.024 0.06,-0.042 0.017,-0.018 0.03,-0.039 0.04,-0.062 0.009,-0.025 0.014,-0.05 0.014,-0.078 0,-0.027 -0.005,-0.053 -0.014,-0.077 C 0.594,-0.472 0.581,-0.494 0.564,-0.512 0.547,-0.529 0.527,-0.544 0.504,-0.554 0.481,-0.564 0.456,-0.57 0.428,-0.57 c -0.028,0 -0.053,0.006 -0.076,0.016 -0.023,0.01 -0.043,0.025 -0.06,0.042 -0.017,0.018 -0.03,0.04 -0.039,0.064 -0.009,0.024 -0.014,0.05 -0.014,0.077 z M 0.046,-0.37 c 0,-0.036 0.004,-0.07 0.014,-0.102 0.008,-0.033 0.021,-0.063 0.038,-0.092 0.017,-0.028 0.037,-0.054 0.06,-0.077 0.023,-0.024 0.049,-0.044 0.077,-0.06 0.028,-0.017 0.059,-0.03 0.091,-0.039 0.033,-0.009 0.067,-0.014 0.102,-0.014 0.035,0 0.069,0.005 0.101,0.014 0.033,0.009 0.064,0.022 0.092,0.039 0.028,0.016 0.054,0.036 0.078,0.06 0.023,0.023 0.043,0.049 0.059,0.077 0.017,0.029 0.03,0.059 0.039,0.092 0.009,0.032 0.013,0.066 0.013,0.102 0,0.035 -0.004,0.069 -0.013,0.101 -0.009,0.033 -0.022,0.063 -0.039,0.091 -0.016,0.028 -0.036,0.054 -0.059,0.077 -0.024,0.023 -0.05,0.043 -0.078,0.06 C 0.593,-0.024 0.562,-0.012 0.529,-0.003 0.497,0.006 0.463,0.011 0.428,0.011 0.393,0.011 0.359,0.006 0.326,-0.003 0.294,-0.012 0.263,-0.024 0.235,-0.041 0.207,-0.058 0.181,-0.078 0.158,-0.101 0.135,-0.124 0.115,-0.15 0.098,-0.178 0.081,-0.206 0.068,-0.236 0.06,-0.269 0.05,-0.301 0.046,-0.335 0.046,-0.37 Z"
   style="fill:#414141;fill-rule:nonzero;fill-opacity:1"
   id="path4" />
            </g>
            <g
   transform="matrix(65.02635,0,0,65.02635,978.78476,1314.1791)"
   id="g5"
   style="fill:#414141;fill-opacity:1">
                <path
   d="m 0.04,-0.721 c 0,-0.006 0.002,-0.012 0.007,-0.016 0.004,-0.004 0.01,-0.006 0.017,-0.006 h 0.538 c 0.006,0 0.011,0.002 0.016,0.006 0.005,0.004 0.007,0.009 0.008,0.016 v 0.125 c 0,0.006 -0.002,0.012 -0.006,0.017 -0.004,0.006 -0.01,0.008 -0.018,0.008 H 0.429 v 0.547 c 0,0.006 -0.002,0.012 -0.006,0.017 C 0.419,-0.002 0.413,0 0.406,0 H 0.259 C 0.253,0 0.248,-0.002 0.243,-0.007 0.238,-0.011 0.236,-0.017 0.236,-0.024 V -0.571 H 0.064 C 0.057,-0.571 0.051,-0.573 0.047,-0.577 0.042,-0.581 0.04,-0.588 0.04,-0.596 Z"
   style="fill:#414141;fill-rule:nonzero;fill-opacity:1"
   id="path5" />
            </g>
            <g
   transform="matrix(65.02635,0,0,65.02635,1022.0923,1314.1791)"
   id="g6"
   style="fill:#414141;fill-opacity:1">
                <path
   d="m 0.082,-0.72 c 0,-0.007 0.001,-0.012 0.005,-0.016 0.004,-0.004 0.009,-0.007 0.017,-0.007 h 0.322 c 0.035,0 0.067,0.007 0.097,0.02 0.03,0.013 0.056,0.03 0.079,0.052 0.022,0.022 0.039,0.048 0.052,0.077 0.013,0.03 0.02,0.061 0.019,0.095 0.001,0.022 -0.003,0.044 -0.009,0.064 -0.006,0.021 -0.014,0.04 -0.025,0.058 -0.011,0.018 -0.025,0.034 -0.04,0.048 -0.015,0.015 -0.031,0.027 -0.05,0.038 l 0.129,0.241 c 0.002,0.005 0.005,0.011 0.009,0.017 0.004,0.006 0.006,0.012 0.006,0.016 0,0.006 -0.002,0.01 -0.006,0.013 C 0.684,-0.001 0.679,0 0.673,0 H 0.502 C 0.496,0 0.491,-0.002 0.486,-0.005 0.482,-0.008 0.479,-0.013 0.478,-0.018 L 0.356,-0.247 H 0.275 v 0.225 C 0.275,-0.007 0.267,0 0.252,0 H 0.104 C 0.097,0 0.092,-0.002 0.088,-0.005 0.084,-0.009 0.082,-0.014 0.082,-0.022 Z m 0.391,0.223 c 0,-0.01 -0.002,-0.02 -0.005,-0.03 C 0.464,-0.537 0.459,-0.547 0.452,-0.555 0.445,-0.563 0.437,-0.57 0.428,-0.576 0.419,-0.582 0.408,-0.585 0.397,-0.587 0.388,-0.588 0.379,-0.588 0.371,-0.589 0.363,-0.589 0.354,-0.59 0.344,-0.59 H 0.275 v 0.184 h 0.092 c 0.006,0 0.011,0 0.016,-10e-4 0.005,0 0.01,0 0.016,-0.001 0.011,-0.001 0.022,-0.005 0.031,-0.01 0.009,-0.006 0.017,-0.013 0.024,-0.021 0.006,-0.008 0.011,-0.017 0.014,-0.027 0.003,-0.01 0.005,-0.021 0.005,-0.031 z"
   style="fill:#414141;fill-rule:nonzero;fill-opacity:1"
   id="path6" />
            </g>
            <g
   transform="matrix(65.02635,0,0,65.02635,1067.8383,1314.1791)"
   id="g7"
   style="fill:#414141;fill-opacity:1">
                <path
   d="m 0.239,-0.371 c 0,0.028 0.005,0.053 0.014,0.078 0.009,0.023 0.022,0.044 0.039,0.062 0.017,0.018 0.037,0.032 0.06,0.042 0.023,0.01 0.048,0.015 0.076,0.015 0.028,0 0.053,-0.005 0.076,-0.015 0.023,-0.01 0.043,-0.024 0.06,-0.042 0.017,-0.018 0.03,-0.039 0.04,-0.062 0.009,-0.025 0.014,-0.05 0.014,-0.078 0,-0.027 -0.005,-0.053 -0.014,-0.077 C 0.594,-0.472 0.581,-0.494 0.564,-0.512 0.547,-0.529 0.527,-0.544 0.504,-0.554 0.481,-0.564 0.456,-0.57 0.428,-0.57 c -0.028,0 -0.053,0.006 -0.076,0.016 -0.023,0.01 -0.043,0.025 -0.06,0.042 -0.017,0.018 -0.03,0.04 -0.039,0.064 -0.009,0.024 -0.014,0.05 -0.014,0.077 z M 0.046,-0.37 c 0,-0.036 0.004,-0.07 0.014,-0.102 0.008,-0.033 0.021,-0.063 0.038,-0.092 0.017,-0.028 0.037,-0.054 0.06,-0.077 0.023,-0.024 0.049,-0.044 0.077,-0.06 0.028,-0.017 0.059,-0.03 0.091,-0.039 0.033,-0.009 0.067,-0.014 0.102,-0.014 0.035,0 0.069,0.005 0.101,0.014 0.033,0.009 0.064,0.022 0.092,0.039 0.028,0.016 0.054,0.036 0.078,0.06 0.023,0.023 0.043,0.049 0.059,0.077 0.017,0.029 0.03,0.059 0.039,0.092 0.009,0.032 0.013,0.066 0.013,0.102 0,0.035 -0.004,0.069 -0.013,0.101 -0.009,0.033 -0.022,0.063 -0.039,0.091 -0.016,0.028 -0.036,0.054 -0.059,0.077 -0.024,0.023 -0.05,0.043 -0.078,0.06 C 0.593,-0.024 0.562,-0.012 0.529,-0.003 0.497,0.006 0.463,0.011 0.428,0.011 0.393,0.011 0.359,0.006 0.326,-0.003 0.294,-0.012 0.263,-0.024 0.235,-0.041 0.207,-0.058 0.181,-0.078 0.158,-0.101 0.135,-0.124 0.115,-0.15 0.098,-0.178 0.081,-0.206 0.068,-0.236 0.06,-0.269 0.05,-0.301 0.046,-0.335 0.046,-0.37 Z"
   style="fill:#414141;fill-rule:nonzero;fill-opacity:1"
   id="path7" />
            </g>
            <g
   transform="matrix(65.02635,0,0,65.02635,1123.2733,1314.1791)"
   id="g8"
   style="fill:#414141;fill-opacity:1">
                <path
   d="m 0.083,-0.721 c 0,-0.006 0.001,-0.011 0.005,-0.015 0.004,-0.004 0.009,-0.007 0.016,-0.007 h 0.164 c 0.005,0 0.01,0.002 0.015,0.004 0.005,0.002 0.009,0.006 0.012,0.012 0.043,0.068 0.085,0.136 0.126,0.202 0.042,0.066 0.084,0.134 0.127,0.202 V -0.724 C 0.549,-0.73 0.552,-0.734 0.556,-0.738 0.56,-0.741 0.565,-0.743 0.57,-0.743 h 0.143 c 0.007,0 0.012,0.002 0.017,0.006 0.005,0.004 0.007,0.009 0.007,0.016 v 0.702 c 0,0.006 -0.002,0.011 -0.006,0.014 C 0.727,-0.002 0.721,0 0.715,0 H 0.555 C 0.551,0 0.547,-0.002 0.543,-0.005 0.54,-0.008 0.537,-0.012 0.533,-0.017 0.489,-0.09 0.445,-0.162 0.402,-0.234 0.358,-0.306 0.314,-0.378 0.27,-0.452 v 0.43 c 0,0.007 -0.002,0.013 -0.005,0.017 C 0.261,-0.002 0.255,0 0.246,0 H 0.104 C 0.097,0 0.091,-0.002 0.088,-0.006 0.084,-0.01 0.083,-0.015 0.083,-0.022 Z"
   style="fill:#414141;fill-rule:nonzero;fill-opacity:1"
   id="path8" />
            </g>
            <g
   transform="matrix(65.02635,0,0,65.02635,1176.5624,1314.1791)"
   id="g9"
   style="fill:#414141;fill-opacity:1">
                <path
   d="m 0.083,-0.721 c 0,-0.006 0.001,-0.011 0.005,-0.015 0.004,-0.004 0.009,-0.007 0.016,-0.007 h 0.148 c 0.005,0 0.01,0.002 0.016,0.006 0.005,0.004 0.008,0.01 0.008,0.016 v 0.699 C 0.276,-0.007 0.268,0 0.252,0 H 0.104 C 0.09,0 0.083,-0.007 0.083,-0.022 Z"
   style="fill:#414141;fill-rule:nonzero;fill-opacity:1"
   id="path9" />
            </g>
            <g
   transform="matrix(65.02635,0,0,65.02635,1199.7443,1314.1791)"
   id="g10"
   style="fill:#414141;fill-opacity:1">
                <path
   d="m 0.647,-0.689 c 0.006,0.004 0.01,0.008 0.012,0.014 0.003,0.005 0.003,0.011 -0.001,0.019 l -0.084,0.12 c -0.004,0.005 -0.008,0.008 -0.012,0.009 -0.004,0.001 -0.01,0 -0.016,-0.004 C 0.53,-0.543 0.512,-0.553 0.492,-0.559 0.473,-0.566 0.452,-0.57 0.43,-0.57 c -0.027,0 -0.052,0.006 -0.076,0.016 -0.023,0.01 -0.042,0.025 -0.059,0.042 -0.017,0.018 -0.03,0.04 -0.039,0.063 -0.009,0.024 -0.014,0.05 -0.014,0.078 0,0.027 0.005,0.052 0.014,0.076 0.009,0.024 0.022,0.045 0.039,0.063 0.017,0.018 0.036,0.032 0.059,0.042 0.024,0.01 0.049,0.015 0.076,0.015 0.022,0 0.043,-0.003 0.063,-0.01 0.02,-0.007 0.038,-0.016 0.054,-0.028 0.006,-0.004 0.011,-0.006 0.015,-0.005 0.005,0.001 0.009,0.004 0.013,0.009 l 0.085,0.123 c 0.004,0.007 0.004,0.014 0.001,0.018 -0.002,0.006 -0.006,0.01 -0.012,0.013 C 0.618,-0.034 0.584,-0.018 0.548,-0.006 0.512,0.005 0.474,0.011 0.433,0.011 0.398,0.011 0.364,0.006 0.332,-0.003 0.299,-0.012 0.269,-0.024 0.24,-0.041 0.212,-0.058 0.186,-0.078 0.163,-0.101 0.14,-0.124 0.12,-0.15 0.104,-0.178 0.087,-0.206 0.074,-0.236 0.065,-0.269 0.056,-0.301 0.052,-0.335 0.052,-0.37 c 0,-0.036 0.004,-0.07 0.013,-0.102 0.009,-0.033 0.022,-0.063 0.039,-0.092 0.016,-0.028 0.036,-0.054 0.059,-0.077 0.023,-0.024 0.049,-0.044 0.077,-0.06 0.029,-0.017 0.059,-0.03 0.092,-0.039 0.032,-0.009 0.066,-0.014 0.101,-0.014 0.041,0 0.078,0.006 0.114,0.017 0.035,0.011 0.069,0.028 0.1,0.048 z"
   style="fill:#414141;fill-rule:nonzero;fill-opacity:1"
   id="path10" />
            </g>
            <g
   transform="matrix(65.02635,0,0,65.02635,1245.5554,1314.1791)"
   id="g11"
   style="fill:#414141;fill-opacity:1">
                <path
   d="m 0.174,-0.24 c 0.006,0.005 0.013,0.011 0.022,0.019 0.009,0.008 0.019,0.016 0.03,0.023 0.017,0.012 0.034,0.021 0.051,0.027 0.016,0.006 0.034,0.009 0.052,0.009 0.017,0 0.031,-0.001 0.043,-0.005 0.011,-0.004 0.02,-0.009 0.027,-0.015 0.007,-0.007 0.011,-0.014 0.014,-0.023 0.003,-0.008 0.004,-0.017 0.004,-0.026 0,-0.01 -0.003,-0.02 -0.011,-0.028 C 0.398,-0.267 0.388,-0.274 0.377,-0.281 0.366,-0.287 0.354,-0.292 0.342,-0.297 0.329,-0.301 0.319,-0.305 0.309,-0.308 0.27,-0.322 0.235,-0.337 0.205,-0.353 0.175,-0.369 0.149,-0.387 0.13,-0.407 0.11,-0.427 0.095,-0.449 0.085,-0.473 0.075,-0.497 0.07,-0.523 0.07,-0.552 c 0,-0.032 0.006,-0.06 0.018,-0.085 0.013,-0.025 0.031,-0.047 0.054,-0.065 0.023,-0.018 0.051,-0.032 0.084,-0.042 0.032,-0.01 0.069,-0.015 0.109,-0.015 0.03,0 0.059,0.004 0.087,0.011 0.028,0.007 0.056,0.017 0.083,0.032 0.011,0.007 0.022,0.014 0.032,0.021 0.01,0.007 0.019,0.014 0.027,0.021 0.007,0.007 0.013,0.013 0.018,0.019 0.004,0.006 0.007,0.011 0.007,0.015 0,0.005 -0.002,0.009 -0.004,0.012 C 0.583,-0.624 0.58,-0.62 0.576,-0.615 L 0.499,-0.533 C 0.493,-0.528 0.488,-0.525 0.482,-0.525 0.477,-0.525 0.473,-0.526 0.469,-0.529 0.465,-0.532 0.461,-0.535 0.457,-0.539 L 0.452,-0.543 C 0.445,-0.549 0.438,-0.554 0.43,-0.56 0.422,-0.567 0.413,-0.572 0.404,-0.577 0.394,-0.582 0.384,-0.586 0.374,-0.589 0.364,-0.592 0.353,-0.594 0.343,-0.594 c -0.011,0 -0.022,0.001 -0.032,0.003 -0.009,0.002 -0.018,0.005 -0.025,0.009 -0.007,0.004 -0.013,0.009 -0.017,0.016 -0.005,0.006 -0.007,0.014 -0.007,0.024 0,0.009 0.002,0.017 0.007,0.024 0.005,0.007 0.012,0.013 0.021,0.019 0.009,0.006 0.021,0.011 0.035,0.016 0.014,0.005 0.03,0.011 0.048,0.017 0.035,0.012 0.068,0.024 0.098,0.037 0.03,0.013 0.055,0.028 0.077,0.045 0.022,0.018 0.039,0.039 0.051,0.063 0.012,0.024 0.018,0.054 0.018,0.088 0,0.037 -0.007,0.07 -0.022,0.1 C 0.58,-0.103 0.559,-0.077 0.533,-0.057 0.507,-0.036 0.476,-0.019 0.441,-0.008 0.405,0.004 0.367,0.009 0.327,0.009 0.288,0.009 0.251,0.003 0.213,-0.011 0.176,-0.025 0.142,-0.043 0.11,-0.066 0.097,-0.076 0.085,-0.085 0.076,-0.095 0.067,-0.104 0.053,-0.119 0.053,-0.119 c 0,0 -0.001,-0.001 -0.001,-0.001 0,0 -0.001,0 -0.001,0 0,-0.001 -10e-4,-0.002 -10e-4,-0.002 0,0 -0.001,0 -0.001,0 -0.008,-0.009 -0.012,-0.016 -0.012,-0.021 0,-0.005 0.004,-0.011 0.012,-0.019 l 0.087,-0.082 c 0.006,-0.005 0.012,-0.008 0.016,-0.008 0.003,0 0.007,0.001 0.01,0.004 0.003,0.001 0.007,0.004 0.012,0.008 z"
   style="fill:#414141;fill-rule:nonzero;fill-opacity:1"
   id="path11" />
            </g>
        </g>
        <g
   transform="matrix(0.917142,0,0,2.271235,87.209889,-2078.4992)"
   id="g24">
            <g
   transform="translate(-275.97913,-545.08304)"
   id="g18">
                <g
   transform="translate(-83.516549,337.52811)"
   id="g13">
                    <path
   d="m 1252.748,1880.514 167.033,96.436 167.033,-96.436 -167.033,-96.437 z"
   style="fill:url(#_Linear1);stroke:#ffffff;stroke-width:4.17px"
   id="path12" />
                </g>
                <path
   d="m 1169.232,1928.732 v 192.873 l 167.033,96.437 v -192.873 z"
   style="fill:#f15b66;stroke:#ffffff;stroke-width:4.17px"
   id="path13" />
                <g
   transform="translate(0,289.30981)"
   id="g14">
                    <path
   d="m 1169.232,1928.732 v 385.746 l 167.033,96.437 v -385.746 z"
   style="fill:#f15b66;stroke:#ffffff;stroke-width:4.17px"
   id="path14" />
                </g>
                <g
   transform="translate(-83.516549,48.218302)"
   id="g15">
                    <path
   d="m 1252.748,1880.514 167.033,96.436 167.033,-96.436 -167.033,-96.437 z"
   style="fill:url(#_Linear2);stroke:#ffffff;stroke-width:4.17px"
   id="path15" />
                </g>
                <g
   transform="translate(-167.0331,-192.87321)"
   id="g16">
                    <path
   d="m 1503.298,2218.042 v 192.873 l 167.033,-96.437 v -192.873 z"
   style="fill:#8c2d61;stroke:#ffffff;stroke-width:4.17px"
   id="path16" />
                </g>
                <g
   transform="translate(-167.0331,96.436604)"
   id="g17">
                    <path
   d="m 1503.298,2218.042 v 385.746 l 167.033,-96.436 v -385.747 z"
   style="fill:#8c2d61;stroke:#ffffff;stroke-width:4.17px"
   id="path17" />
                </g>
            </g>
            <g
   transform="translate(-334.0662,-578.61962)"
   id="g23">
                <g
   transform="translate(167.0331,-96.436604)"
   id="g19">
                    <path
   d="m 1920.881,1976.95 -167.033,-96.436 -501.1,289.31 167.033,96.436"
   style="fill:url(#_Linear3);stroke:#ffffff;stroke-width:4.17px"
   id="path18" />
                </g>
                <g
   transform="translate(167.0331,-96.436604)"
   id="g20">
                    <path
   d="m 1253.198,2170.083 -0.45,192.614 167.033,96.436 V 2266.26 Z"
   style="fill:#f15b66;stroke:#ffffff;stroke-width:4.17px"
   id="path19" />
                </g>
                <g
   transform="translate(167.0331,-96.436604)"
   id="g21">
                    <path
   d="m 1586.814,2844.88 -167.033,-96.437 0.225,-482.053 166.808,96.307 z"
   style="fill:#f15b66;stroke:#ffffff;stroke-width:4.17px"
   id="path20" />
                </g>
                <g
   transform="translate(167.0331,-96.436604)"
   id="g22">
                    <path
   d="m 1586.814,2844.88 167.034,-96.437 V 2266.26 l 167.033,-96.436 V 1976.95 l -501.1,289.31 v 192.873 l 167.033,-96.436 z"
   style="fill:#8c2d61;stroke:#ffffff;stroke-width:4.17px"
   id="path21" />
                </g>
            </g>
        </g>
    </g>
    <defs
   id="defs29">
        <linearGradient
   id="_Linear1"
   x1="0"
   y1="0"
   x2="1"
   y2="0"
   gradientUnits="userSpaceOnUse"
   gradientTransform="matrix(334.0662,0,0,867.92944,1252.7482,1880.5138)"><stop
     offset="0"
     style="stop-color:rgb(241,91,102);stop-opacity:1"
     id="stop24" /><stop
     offset="1"
     style="stop-color:rgb(140,45,97);stop-opacity:1"
     id="stop25" /></linearGradient>
        <linearGradient
   id="_Linear2"
   x1="0"
   y1="0"
   x2="1"
   y2="0"
   gradientUnits="userSpaceOnUse"
   gradientTransform="matrix(333.84126,-0.129867,0.337404,867.34504,1252.9732,1880.6436)"><stop
     offset="0"
     style="stop-color:rgb(241,91,102);stop-opacity:1"
     id="stop26" /><stop
     offset="1"
     style="stop-color:rgb(140,45,97);stop-opacity:1"
     id="stop27" /></linearGradient>
        <linearGradient
   id="_Linear3"
   x1="0"
   y1="0"
   x2="1"
   y2="0"
   gradientUnits="userSpaceOnUse"
   gradientTransform="matrix(667.68252,-192.87321,278.3885,963.71671,1253.1981,2170.0833)"><stop
     offset="0"
     style="stop-color:rgb(241,91,102);stop-opacity:1"
     id="stop28" /><stop
     offset="1"
     style="stop-color:rgb(140,45,97);stop-opacity:1"
     id="stop29" /></linearGradient>
    </defs>
</svg>
